<svg xmlns="http://www.w3.org/2000/svg" viewBox="0 0 70.87 69.79"><defs></defs><title>techagogics Logo</title><g id="Ebene_2" data-name="Ebene 2"><polygon class="cls-1" points="31.03 19.09 26.06 21.09 26.06 26.05 20.09 26.05 20.09 30.95 26.06 30.95 26.06 30.99 26.06 35.89 26.06 40.8 26.06 40.83 26.06 45.73 31.03 45.73 31.03 40.83 31.03 40.8 31.03 35.89 31.03 30.99 31.03 30.96 45.8 30.96 45.8 26.05 31.03 26.05 31.03 19.09"/><polygon class="cls-1" points="31.03 50.7 43.8 50.7 45.8 45.73 31.03 45.73 31.03 50.7"/><polygon class="cls-1" points="40.84 35.96 40.84 40.86 45.8 40.86 45.8 45.73 50.77 45.73 50.77 40.86 50.77 40.83 50.77 35.96 40.84 35.96"/></g></svg>