<svg xmlns="http://www.w3.org/2000/svg" viewBox="0 0 99.21 28.35"><defs><style>.cls-1{fill:#1d1d1b;}.cls-2{fill:#fff;}</style></defs><title>techagogics Logo</title><g id="Ebene_2" data-name="Ebene 2"><path class="cls-1" d="M38,12.77H35.82v2.4c0,.56.23.83.59.83s.61-.28.61-1v-.68H38V15c0,1.14-.55,1.8-1.54,1.8s-1.55-.56-1.55-1.68v-2.4h-1v-.85h1V11l.95-.47v1.38H38Z"/><path class="cls-1" d="M42.28,13.8a1.1,1.1,0,0,0-1.2-1.2,1.27,1.27,0,0,0-1,.54,1.78,1.78,0,0,0-.25.66Zm1,.78H39.77a1.88,1.88,0,0,0,.29.9,1.26,1.26,0,0,0,1.12.52,1.14,1.14,0,0,0,1.17-.74h.95a2,2,0,0,1-2.09,1.59,2.22,2.22,0,0,1-2-.9,2.77,2.77,0,0,1-.44-1.61,2.88,2.88,0,0,1,.49-1.66,2.14,2.14,0,0,1,1.81-.91,2.11,2.11,0,0,1,2.21,2.4Z"/><path class="cls-1" d="M44.53,15.95a2.77,2.77,0,0,1-.44-1.61,2.88,2.88,0,0,1,.46-1.65,2.22,2.22,0,0,1,1.91-.91,2,2,0,0,1,2.17,1.88h-.95a1.13,1.13,0,0,0-1.23-1,1.26,1.26,0,0,0-1.09.53,2,2,0,0,0-.31,1.18,2,2,0,0,0,.3,1.15,1.22,1.22,0,0,0,1,.52,1.09,1.09,0,0,0,1.18-1h.95a2,2,0,0,1-2.15,1.88,2.14,2.14,0,0,1-1.85-.9"/><path class="cls-1" d="M49.81,16.71v-7h.95v2.19l-.25,1.3h.15c.29-.95.84-1.43,1.63-1.43,1.16,0,1.77.7,1.77,2v2.91h-1V13.89c0-.82-.36-1.24-1-1.24s-1.27.6-1.27,1.55v2.49Z"/><path class="cls-1" d="M58.32,14.69l-1.21.12a1.1,1.1,0,0,0-.69.25.54.54,0,0,0-.16.41.5.5,0,0,0,.15.38.72.72,0,0,0,.53.18,1.41,1.41,0,0,0,1.38-1.33m.95-1.13V16.7h-1l.23-1.3h-.15a1.6,1.6,0,0,1-1.65,1.44,1.46,1.46,0,0,1-1.06-.41,1.47,1.47,0,0,1,0-1.93A2,2,0,0,1,57,14l1.35-.08v-.38c0-.57-.35-.94-1.09-.94-1.06,0-1.07.81-1.07.91v.05h-1v-.05c0-.12,0-1.75,2.05-1.75,1.35,0,2,.67,2,1.78"/><path class="cls-1" d="M63.75,15.08a1.64,1.64,0,0,0,.28-1,1.64,1.64,0,0,0-.28-1,1.31,1.31,0,0,0-2.07,0,1.89,1.89,0,0,0,0,2,1.31,1.31,0,0,0,2.07,0m-3.33,1.63h.95c.06.68.48,1.07,1.3,1.07A1.25,1.25,0,0,0,64,16.38v-.11L64.33,15h-.15a1.67,1.67,0,0,1-1.65,1.45,2,2,0,0,1-1.69-.84,2.55,2.55,0,0,1-.42-1.48,2.55,2.55,0,0,1,.42-1.47,2,2,0,0,1,1.69-.84,1.66,1.66,0,0,1,1.65,1.44h.15L64,11.92H65v4.14c0,1.7-.77,2.56-2.29,2.56s-2.17-.68-2.24-1.91"/><path class="cls-1" d="M69.75,15.39a2.09,2.09,0,0,0,0-2.15,1.46,1.46,0,0,0-2.37,0,2.09,2.09,0,0,0,0,2.15,1.46,1.46,0,0,0,2.37,0m-3.21.45a2.87,2.87,0,0,1,0-3,2.54,2.54,0,0,1,4,0,2.87,2.87,0,0,1,0,3,2.54,2.54,0,0,1-4,0"/><path class="cls-1" d="M75.2,15.08a1.64,1.64,0,0,0,.28-1,1.64,1.64,0,0,0-.28-1,1.31,1.31,0,0,0-2.07,0,1.64,1.64,0,0,0-.28,1,1.64,1.64,0,0,0,.28,1,1.31,1.31,0,0,0,2.07,0m-3.33,1.63h.95c.06.68.48,1.07,1.3,1.07a1.25,1.25,0,0,0,1.35-1.4v-.11L75.78,15h-.15A1.67,1.67,0,0,1,74,16.41a2,2,0,0,1-1.69-.84,2.55,2.55,0,0,1-.42-1.48,2.55,2.55,0,0,1,.42-1.47A2,2,0,0,1,74,11.78a1.66,1.66,0,0,1,1.65,1.44h.15l-.33-1.31h.95v4.14c0,1.7-.77,2.56-2.29,2.56s-2.17-.68-2.24-1.91"/><path class="cls-1" d="M77.95,11.92h.95v4.78h-.95ZM77.89,10H79v1.18H77.89Z"/><path class="cls-1" d="M80.53,15.95a2.77,2.77,0,0,1-.44-1.61,2.88,2.88,0,0,1,.46-1.65,2.22,2.22,0,0,1,1.91-.91,2,2,0,0,1,2.17,1.88h-.95a1.13,1.13,0,0,0-1.23-1,1.26,1.26,0,0,0-1.09.53,2,2,0,0,0-.31,1.18,2,2,0,0,0,.3,1.15,1.22,1.22,0,0,0,1,.52,1.09,1.09,0,0,0,1.18-1h.95a2,2,0,0,1-2.15,1.88,2.14,2.14,0,0,1-1.85-.9"/><path class="cls-1" d="M85.51,15.2v-.07h.95v.07c0,.57.33.85,1,.85a1,1,0,0,0,.71-.22.55.55,0,0,0,.16-.39c0-.34-.19-.55-.7-.65l-.65-.13c-.91-.18-1.37-.64-1.37-1.42a1.32,1.32,0,0,1,.38-1,2,2,0,0,1,1.47-.49c1.18,0,1.87.64,1.87,1.65v.06h-.95v-.06c0-.56-.32-.86-1-.86a1,1,0,0,0-.71.22.56.56,0,0,0-.16.4c0,.33.23.53.68.62l.63.13c1,.2,1.4.64,1.4,1.44a1.31,1.31,0,0,1-.38,1,2,2,0,0,1-1.47.49c-1.18,0-1.88-.62-1.88-1.64"/><path class="cls-1" d="M25.16,14.17a7.63,7.63,0,1,1-7.63-7.63,7.63,7.63,0,0,1,7.63,7.63"/><path class="cls-2" d="M21.55,14.25H18.69v1.6h1.24v.84H16.62V13.38h3.69v-1.6H16.62V9.94L15,10.59v1.18H13.51v1.6H15v3.7h1.24v1.24h3.51l.5-1.24h1.3ZM16.24,16.7h-.87V13H13.88v-.85h1.49v-1.3l.87-.35v1.65h3.69V13H16.24Zm3.26,1.24H16.62v-.87h3.23Zm1.68-1.24h-.87V15.48H19.07v-.85h2.11Z"/></g></svg>